PathFileType	4	(X/Y/Z)	..\data\2015026\dynamic\2015026_C4_04.trc
DataRate	CameraRate	NumFrames	NumMarkers	Units	OrigDataRate	OrigDataStartFrame	OrigNumFrames
100.000000	100.000000	4	48	mm	100.000000	0	160
Frame#	Time	L_IAS			L_IPS			R_IPS			R_IAS			L_FTC			L_FLE			L_FAX			L_TTC			L_FAL			L_FCC			L_FM1			L_FM2			L_FM5			R_FTC			R_FLE			R_FAX			R_TTC			R_FAL			R_FCC			R_FM1			R_FM2			R_FM5			CV7			TV10			SXS			SJN			L_SIA			L_SRS			L_SAA			L_SAE			L_HLE			L_HME			L_UOA			L_RSP			L_UHE			L_HM2			L_HM5			R_SIA			R_SRS			R_SAA			R_SAE			R_HLE			R_HME			R_UOA			R_RSP			R_UHE			R_HM2			R_HM5			
		X1	Y1	Z1	X2	Y2	Z2	X3	Y3	Z3	X4	Y4	Z4	X5	Y5	Z5	X6	Y6	Z6	X7	Y7	Z7	X8	Y8	Z8	X9	Y9	Z9	X10	Y10	Z10	X11	Y11	Z11	X12	Y12	Z12	X13	Y13	Z13	X14	Y14	Z14	X15	Y15	Z15	X16	Y16	Z16	X17	Y17	Z17	X18	Y18	Z18	X19	Y19	Z19	X20	Y20	Z20	X21	Y21	Z21	X22	Y22	Z22	X23	Y23	Z23	X24	Y24	Z24	X25	Y25	Z25	X26	Y26	Z26	X27	Y27	Z27	X28	Y28	Z28	X29	Y29	Z29	X30	Y30	Z30	X31	Y31	Z31	X32	Y32	Z32	X33	Y33	Z33	X34	Y34	Z34	X35	Y35	Z35	X36	Y36	Z36	X37	Y37	Z37	X38	Y38	Z38	X39	Y39	Z39	X40	Y40	Z40	X41	Y41	Z41	X42	Y42	Z42	X43	Y43	Z43	X44	Y44	Z44	X45	Y45	Z45	X46	Y46	Z46	X47	Y47	Z47	X48	Y48	Z48	

1	0	-196.4488830566407	920.6037597656252	-360.2819824218751	-390.4069213867189	908.920349121094	-316.1304626464844	-392.7297363281251	918.3912353515627	-203.9282379150391	-204.3680572509766	916.7742919921877	-136.7042999267578	-253.5746459960938	834.6541748046877	-431.2895507812501	-76.07202148437501	455.8269653320314	-375.4620361328126	-81.3436965942383	398.8281555175782	-381.1063842773438	-17.34885978698731	410.3336486816407	-329.3220825195313	40.74053573608399	73.79071044921876	-372.0305175781251	15.60297298431397	11.59360980987549	-334.3104858398438	191.7644805908203	75.89350891113283	-297.4567871093751	190.2983093261719	90.26753234863283	-349.2304077148438	162.0857543945313	60.04856109619142	-396.9617309570314	-302.7391967773438	829.556091308594	-85.45993804931642	-374.7623901367188	448.8776855468751	-166.5165100097657	-416.0230407714845	396.2817993164064	-166.1071014404297	-367.0807495117188	370.4364318847657	-217.0880279541016	-525.0487060546876	65.91320800781251	-198.9407958984376	-572.9126586914064	26.10183906555176	-239.8098602294922	-372.7869873046876	15.50117492675782	-267.6010131835938	-373.3987731933594	31.30240631103516	-211.9207916259766	-421.3382263183595	16.78497886657715	-163.3439636230469	-345.7236938476563	1403.632568359375	-253.2830963134766	-423.1653137207032	1165.838745117188	-265.8376159667969	-198.8950805664063	1099.901000976563	-270.2475280761719	-225.7530517578126	1317.34765625	-269.2119140625001	-424.9689331054689	1202.12353515625	-343.0890197753907	-395.9664306640626	1334.387939453125	-341.6353454589844	-353.5290222167969	1342.571655273438	-423.8616943359376	-315.6463623046876	1340.466430664063	-446.0859375000001	-360.8787841796876	1032.435424804688	-503.616180419922	-398.9696044921876	1029.013793945313	-429.7236938476564	-399.1240539550782	1023.51611328125	-477.8258361816407	-310.2137145996094	790.9566040039065	-457.8653259277345	-374.1926574707032	800.2930908203127	-500.8696594238282	-306.3248291015626	705.3031005859376	-457.0316467285157	-394.4606323242189	728.0555419921876	-496.8277282714845	-422.9771118164064	1202.021118164063	-180.1540069580078	-394.8843078613282	1332.925903320313	-210.3739624023438	-343.5209960937501	1343.856201171875	-104.963493347168	-288.5544738769532	1340.260620117188	-84.63237762451173	-281.2361145019532	1030.376586914063	-17.40312767028809	-301.2154235839844	1007.549194335938	-90.84582519531251	-305.5570373535157	997.6711425781252	-45.51340103149415	-118.0284881591797	832.483581542969	-19.51048851013184	-191.9951324462891	800.6712036132815	-11.63073062896729	-74.69569396972658	758.5264892578126	-8.510097503662111	-172.6802825927735	729.5377197265626	-9.898221969604494	
2	0.01	-182.5050811767578	918.946716308594	-360.1553955078126	-376.7957458496094	906.8179321289065	-316.4710693359376	-379.5206604003907	915.793884277344	-204.4283447265626	-191.5539855957032	914.8177490234377	-136.4735565185547	-239.7972564697266	833.1582641601565	-431.486053466797	-60.59261703491212	455.1707763671876	-374.6450195312501	-65.59749603271486	398.1255798339845	-380.6841430664063	-2.482784509658814	409.8243713378907	-327.9343566894532	58.32334518432619	73.88523864746095	-371.6427612304688	32.81967926025391	11.43316745758057	-334.8276062011719	208.411849975586	76.70446777343751	-295.2503051757813	207.6244812011719	91.25658416748048	-347.1076660156251	180.0516357421875	60.97737503051759	-395.1407165527345	-290.0641174316407	827.2410888671877	-85.75595092773439	-364.2614746093751	447.6475524902345	-167.5164489746094	-406.5701904296876	395.6979370117189	-167.1534271240235	-358.3082580566407	368.7999267578126	-218.1508026123047	-524.0180053710939	67.9071502685547	-199.2022399902344	-572.8693847656251	29.02595520019532	-239.9630737304688	-372.2132568359376	15.37845611572266	-267.5761718750001	-372.8677062988282	31.21376037597657	-211.9003601074219	-421.1436767578126	16.8031177520752	-163.5953521728516	-332.6877441406251	1401.4658203125	-254.0725250244141	-410.0743713378907	1163.73583984375	-266.4336853027344	-185.7846221923828	1097.731689453125	-270.3853149414063	-212.6209106445313	1315.229736328125	-269.7574768066407	-411.7886352539064	1199.794799804688	-343.6201171875001	-382.8339538574219	1332.091796875	-342.3249206542969	-340.3778076171876	1340.069213867188	-424.5171203613282	-302.4806518554688	1337.906860351563	-446.6731567382814	-347.1012268066407	1029.693359375	-503.6990051269532	-385.4003295898439	1026.134521484375	-429.9248962402345	-385.4322814941407	1020.810791015625	-477.9014587402345	-297.0016479492188	788.2408447265627	-457.5411376953126	-360.7891235351563	797.6370239257815	-500.8122863769532	-293.2801208496094	702.5777587890626	-456.6018371582032	-381.2394714355469	725.4953002929689	-496.7674560546876	-410.0738220214845	1199.974243164063	-180.8960266113282	-381.9125671386719	1330.907592773438	-211.1916656494141	-330.6628417968751	1341.73046875	-105.6397247314453	-275.6951293945313	1338.10009765625	-85.25984954833986	-268.0724182128907	1028.37841796875	-17.80712890625	-288.0802612304688	1005.4189453125	-91.2094192504883	-292.2110290527344	995.5432128906252	-45.99357604980469	-104.8619995117188	830.3668212890627	-19.73156547546387	-178.844711303711	798.6553955078127	-11.75762367248535	-61.66066741943361	756.3349609375001	-8.698255538940431	-159.6704559326172	727.5189208984376	-9.973916053771974	
3	0.02	-168.4032440185547	917.6196899414065	-360.0765075683594	-362.9868469238282	905.2010498046877	-316.8936767578126	-366.0950927734376	913.6428222656252	-204.9736785888672	-178.5180969238282	913.1536865234377	-136.3087768554688	-225.8161010742188	832.115905761719	-431.7722167968751	-45.02008056640626	454.7932128906251	-373.8622131347657	-50.08316802978517	397.7660522460939	-380.1889343261719	12.19210433959961	409.3094177246095	-326.5599060058594	72.88744354248048	73.67089843750001	-370.9927062988282	46.5520248413086	11.31633281707764	-335.0828857421876	221.9768981933594	75.97186279296876	-292.8560485839844	221.9914703369141	90.6481170654297	-344.7657775878907	194.7066345214844	60.53182220458986	-393.0960693359376	-277.2970886230469	825.280212402344	-86.15110015869142	-353.1906738281251	446.5729064941407	-168.4759368896485	-396.5948791503907	395.295867919922	-168.148193359375	-349.0193786621094	367.3122253417969	-219.1803283691407	-522.7515869140626	70.46365356445314	-199.3420410156251	-572.6873779296876	32.75424957275391	-240.0116424560547	-371.7747497558594	15.20034503936768	-267.5913391113282	-372.4276733398438	31.0497055053711	-211.9052429199219	-420.9993896484376	16.79071426391602	-163.8885192871094	-319.5034179687501	1399.694458007813	-254.9519653320313	-396.792694091797	1161.994750976563	-267.0613098144532	-172.4409790039063	1096.004760742188	-270.5618591308594	-199.3504638671876	1313.514282226563	-270.3695678710938	-398.4448242187501	1197.838500976563	-344.1913452148438	-369.5517578125001	1330.159301757813	-343.0853576660157	-327.0840454101563	1337.924682617188	-425.2611389160157	-289.1636352539063	1335.699096679688	-447.3300781250001	-333.0829162597657	1027.291870117188	-503.8398437500001	-371.5220642089844	1023.589477539063	-430.1709594726564	-371.4848327636719	1018.436706542969	-478.0201416015626	-283.4188537597657	785.8897705078127	-457.3251953125001	-347.0458068847657	795.3144531250002	-500.8214416503907	-279.8249816894532	700.2077026367189	-456.3011474609376	-367.6315002441407	723.2554321289064	-496.7908935546876	-396.9634704589845	1198.292602539063	-181.6864471435547	-368.7721557617188	1329.253173828125	-212.0768432617188	-317.6596984863282	1340.021850585938	-106.3951187133789	-262.7127685546876	1336.3720703125	-85.93215179443361	-255.1390838623047	1026.7548828125	-18.3493709564209	-275.1749877929688	1003.74560546875	-91.7186965942383	-279.1936950683594	993.8521728515627	-46.58314514160157	-92.20443725585939	828.3899536132815	-20.04986381530762	-166.2315216064453	796.8757324218752	-12.02633285522461	-49.24650192260744	754.2180175781251	-8.990761756896974	-147.3230743408203	725.7156982421876	-10.18163204193115	
4	0.03	-154.1641693115235	916.6724853515627	-360.0621643066407	-348.9877929687501	904.1102294921877	-317.3994445800782	-352.4455871582032	911.9910278320315	-205.559066772461	-165.2382202148438	911.837585449219	-136.234603881836	-211.6006317138672	831.5747680664065	-432.151092529297	-29.48144531250001	454.6624450683595	-373.1058959960938	-34.87880325317384	397.7093505859376	-379.6215515136719	26.61126899719239	408.7973937988282	-325.1926574707032	84.67050933837892	73.15653228759767	-370.1316528320313	57.06992721557619	11.22686576843262	-335.1205139160157	232.7095489501954	73.75024414062501	-290.3189086914063	233.6508789062501	88.49754333496095	-342.2463989257813	206.3091430664063	58.76214599609376	-390.8971252441407	-264.4017028808594	823.7207031250002	-86.64717102050783	-341.4190368652344	445.6544189453126	-169.3351135253907	-385.9681701660157	395.0874938964845	-169.0357666015625	-339.0747375488282	365.9680175781251	-220.1021423339844	-521.1575927734376	73.6723098754883	-199.3319549560547	-572.2344360351564	37.42221450805665	-239.9481658935547	-371.5521240234376	14.96217823028565	-267.6703491210938	-372.1394042968751	30.7928695678711	-211.9554290771485	-420.9290466308595	16.77026557922364	-164.232162475586	-306.1669921875001	1398.362426757813	-255.9102020263672	-383.3176269531251	1160.656860351563	-267.7110595703126	-158.8633575439453	1094.76123046875	-270.7850036621094	-185.9372100830078	1312.244750976563	-271.0436401367188	-384.9364624023439	1196.304321289063	-344.7979431152344	-356.1159057617188	1328.6396484375	-343.9090270996094	-313.6417236328126	1336.192626953125	-426.0856323242189	-275.6882934570313	1333.898681640625	-448.0508422851564	-318.8429260253907	1025.292602539063	-504.0296936035157	-357.3352355957032	1021.440063476563	-430.4458618164064	-357.2896728515626	1016.449462890625	-478.1712036132814	-269.4617309570313	783.961608886719	-457.2205505371095	-332.9675903320313	793.3828735351565	-500.8882446289064	-265.9504089355469	698.2500000000001	-456.1383666992189	-353.6380615234376	721.3908691406251	-496.8870239257814	-383.6341247558594	1197.019287109375	-182.5064086914063	-355.4545898437501	1328.003173828125	-213.0129089355469	-304.4958496093751	1338.77783203125	-107.2195892333985	-249.5933227539063	1335.1259765625	-86.64391326904298	-242.4511108398438	1025.554443359375	-19.02804565429688	-262.5043945312501	1002.578369140625	-92.3778762817383	-266.5170898437501	992.6499023437502	-47.2810173034668	-80.07650756835939	826.6033325195315	-20.46165657043457	-154.1884765625	795.381286621094	-12.43371009826661	-37.47090148925782	752.2292480468751	-9.382351875305178	-135.6573944091797	724.1773681640626	-10.52410316467285	
